<?xml version="1.0" standalone="no"?>
<!DOCTYPE svg PUBLIC "-//W3C//DTD SVG 20010904//EN"
 "http://www.w3.org/TR/2001/REC-SVG-20010904/DTD/svg10.dtd">
<svg version="1.0" xmlns="http://www.w3.org/2000/svg"
 width="2126.000000pt" height="1178.000000pt" viewBox="0 0 2126.000000 1178.000000"
 preserveAspectRatio="xMidYMid meet">

<g transform="translate(0.000000,1178.000000) scale(0.100000,-0.100000)"
fill="#000000" stroke="none">
<path d="M4765 11754 c-55 -21 -222 -61 -327 -79 -329 -58 -916 -70 -1335 -28
l-63 6 0 -110 0 -110 129 -12 c232 -21 362 -72 477 -187 116 -114 179 -275
203 -518 15 -149 16 -6414 1 -6536 -24 -191 -75 -314 -169 -403 -109 -104
-258 -153 -496 -165 l-140 -7 -3 -112 c-2 -87 0 -113 10 -113 7 0 162 8 343
17 459 24 1396 24 1812 0 165 -9 306 -17 312 -17 8 0 11 34 9 113 l-3 112
-115 6 c-337 19 -495 145 -562 449 l-23 105 0 1035 0 1035 60 -3 c89 -4 219
-30 291 -57 134 -50 258 -155 388 -325 131 -172 1326 -1928 1341 -1971 19 -52
19 -90 1 -132 -31 -73 -119 -123 -238 -135 l-73 -7 -3 -112 c-2 -79 1 -113 9
-113 6 0 147 8 312 17 423 23 1202 23 1501 0 121 -9 223 -17 228 -17 5 0 7 50
6 112 l-3 112 -62 13 c-87 17 -199 63 -269 109 -85 56 -231 201 -326 323 -167
215 -2013 2742 -2013 2755 0 16 1264 1346 1393 1466 119 110 246 200 377 265
134 66 237 101 375 124 l105 18 3 108 3 107 -53 -6 c-369 -42 -1408 -42 -2001
0 l-88 7 3 -109 3 -109 135 -6 c158 -7 282 -29 391 -69 193 -70 276 -184 251
-345 -15 -97 -90 -245 -187 -365 -93 -116 -973 -1028 -1070 -1109 -102 -85
-209 -152 -320 -200 -99 -44 -314 -103 -417 -116 l-58 -7 0 2656 c0 1461 -3
2656 -7 2655 -5 0 -26 -7 -48 -15z"/>
<path d="M1080 11554 c-36 -7 -108 -35 -160 -60 -242 -120 -391 -374 -377
-644 18 -349 298 -629 647 -647 126 -7 218 13 340 73 276 137 428 449 365 749
-18 85 -79 210 -140 287 -155 196 -430 295 -675 242z"/>
<path d="M14890 11554 c-36 -7 -108 -35 -160 -60 -242 -120 -391 -374 -377
-644 18 -349 298 -629 647 -647 126 -7 218 13 340 73 276 137 428 449 365 749
-18 85 -79 210 -140 287 -155 196 -430 295 -675 242z"/>
<path d="M10700 9019 c-221 -23 -454 -86 -633 -173 -378 -183 -611 -489 -694
-911 -25 -126 -25 -434 0 -558 60 -300 209 -560 458 -803 196 -190 390 -333
822 -606 793 -501 992 -653 1184 -903 235 -308 270 -758 87 -1134 -51 -103
-65 -124 -152 -211 -107 -108 -192 -163 -318 -209 -130 -48 -222 -62 -385 -62
-390 1 -678 107 -904 335 -278 280 -436 714 -545 1498 -11 82 -20 150 -20 153
0 3 -56 5 -124 5 l-123 0 -6 -802 c-5 -707 -16 -1149 -32 -1285 l-5 -43 123 0
123 0 22 98 c36 161 103 275 173 297 39 13 87 -5 151 -56 160 -129 340 -239
472 -290 101 -39 280 -83 426 -106 162 -25 558 -25 720 0 261 40 461 101 665
203 418 207 681 532 776 959 29 131 37 394 15 541 -73 497 -363 886 -997 1336
-169 120 -379 258 -729 478 -151 95 -333 212 -405 261 -482 326 -674 586 -692
939 -17 338 134 612 412 751 170 84 353 115 585 98 492 -36 846 -290 1093
-784 97 -195 163 -397 221 -675 l33 -155 120 -3 120 -3 6 618 c7 568 15 868
33 1111 l6 93 -122 -3 -123 -3 -17 -100 c-23 -135 -43 -200 -82 -264 -40 -66
-72 -91 -126 -98 -54 -7 -133 31 -262 127 -117 87 -348 204 -495 252 -264 86
-564 116 -855 87z"/>
<path d="M20091 9014 c-188 -32 -403 -129 -583 -264 -126 -95 -316 -289 -422
-430 -127 -171 -265 -418 -332 -595 -19 -50 -19 -49 -22 614 -2 537 -5 662
-15 658 -80 -31 -317 -80 -492 -102 -330 -41 -886 -46 -1217 -9 l-58 6 0 -109
0 -110 123 -11 c154 -15 230 -34 334 -83 190 -91 292 -256 344 -561 17 -99 26
-3599 9 -3789 -37 -428 -219 -596 -670 -618 l-135 -6 -3 -112 c-2 -93 0 -113
12 -113 8 0 155 8 328 17 430 24 1568 23 2133 0 220 -9 408 -17 418 -17 15 0
17 12 17 114 l0 113 -162 6 c-529 18 -830 195 -927 546 -41 148 -42 201 -38
1531 3 1244 4 1278 24 1380 59 296 133 513 260 762 235 462 566 775 938 884
76 23 110 27 225 28 148 1 185 -9 240 -69 23 -24 23 -27 8 -36 -54 -30 -171
-135 -212 -190 -96 -128 -136 -239 -136 -381 0 -264 159 -468 415 -533 76 -19
222 -19 304 0 188 45 348 195 416 392 49 140 57 318 20 458 -23 92 -97 233
-162 309 -214 255 -607 383 -982 320z"/>
<path d="M1708 8980 c-147 -48 -424 -91 -703 -110 -256 -17 -721 -9 -947 16
l-58 6 0 -109 0 -110 122 -11 c155 -15 231 -34 335 -83 190 -91 292 -256 344
-561 17 -99 26 -3599 9 -3789 -37 -428 -219 -596 -670 -618 l-135 -6 -3 -112
c-2 -87 0 -113 10 -113 7 0 162 8 343 17 457 24 1433 24 1890 0 182 -9 336
-17 343 -17 10 0 12 26 10 113 l-3 112 -135 6 c-236 12 -387 61 -499 164 -95
88 -147 213 -171 405 -7 56 -10 880 -10 2452 0 1303 -3 2368 -7 2367 -5 -1
-34 -9 -65 -19z"/>
<path d="M15518 8980 c-147 -48 -424 -91 -703 -110 -256 -17 -721 -9 -947 16
l-58 6 0 -109 0 -110 123 -11 c154 -15 230 -34 334 -83 190 -91 292 -256 344
-561 17 -99 26 -3599 9 -3789 -37 -428 -219 -596 -670 -618 l-135 -6 -3 -112
c-2 -87 0 -113 10 -113 7 0 162 8 343 17 457 24 1433 24 1890 0 182 -9 336
-17 343 -17 10 0 12 26 10 113 l-3 112 -135 6 c-236 12 -387 61 -499 164 -95
88 -147 213 -171 405 -7 56 -10 880 -10 2452 0 1303 -3 2368 -7 2367 -5 -1
-34 -9 -65 -19z"/>
<path d="M9620 1195 l0 -755 95 0 95 0 0 755 0 755 -95 0 -95 0 0 -755z"/>
<path d="M40 1180 l0 -740 90 0 90 0 2 598 3 597 57 -90 c32 -49 216 -318 410
-597 l353 -507 108 -1 107 0 0 740 0 740 -95 0 -95 0 -2 -602 -3 -603 -48 75
c-26 41 -211 312 -410 602 l-362 527 -102 1 -103 0 0 -740z"/>
<path d="M11630 1181 l0 -741 305 0 c339 0 411 8 521 60 75 36 155 115 191
189 25 51 28 66 28 166 0 134 -17 187 -84 259 -45 47 -146 106 -183 106 -30 0
-20 15 18 29 59 21 138 106 164 176 18 50 21 75 18 150 -7 142 -58 220 -183
279 -100 48 -178 58 -497 63 l-298 5 0 -741z m631 550 c101 -32 144 -91 143
-196 0 -116 -41 -173 -152 -216 -49 -19 -84 -22 -244 -27 l-188 -5 0 233 0
232 203 -5 c113 -2 218 -9 238 -16z m57 -625 c107 -34 157 -111 156 -241 0
-121 -60 -197 -183 -235 -54 -17 -92 -20 -267 -20 l-204 0 0 261 0 261 223 -4
c172 -4 234 -9 275 -22z"/>
<path d="M3920 1776 l-75 -23 -3 -136 -3 -137 -104 0 -105 0 0 -60 0 -60 100
0 100 0 0 -272 c0 -336 9 -432 47 -507 48 -95 125 -129 316 -138 l117 -6 0 75
0 75 -93 5 c-106 6 -148 23 -174 71 -16 29 -18 65 -18 362 l0 330 143 3 142 3
0 59 0 60 -145 0 -145 0 0 160 c0 122 -3 160 -12 159 -7 -1 -47 -11 -88 -23z"/>
<path d="M18540 1776 l-75 -23 -3 -136 -3 -137 -104 0 -105 0 0 -60 0 -60 100
0 100 0 0 -272 c0 -336 9 -432 47 -507 48 -95 125 -129 316 -138 l117 -6 0 75
0 75 -93 5 c-106 6 -148 23 -174 71 -16 29 -18 65 -18 362 l0 330 143 3 142 3
0 59 0 60 -145 0 -145 0 0 160 c0 122 -3 160 -12 159 -7 -1 -47 -11 -88 -23z"/>
<path d="M2365 1498 c-280 -53 -450 -371 -373 -698 43 -181 174 -321 343 -365
179 -46 363 9 445 134 l30 44 0 -86 0 -87 95 0 95 0 0 520 0 520 -95 0 -95 0
0 -74 0 -74 -57 57 c-106 105 -229 139 -388 109z m272 -174 c123 -59 195 -220
178 -404 -21 -237 -145 -362 -346 -348 -168 12 -272 120 -300 312 -28 190 43
376 166 436 90 44 214 45 302 4z"/>
<path d="M7080 1500 c-59 -13 -127 -61 -173 -122 l-37 -51 0 77 0 76 -101 0
-102 0 6 -67 c4 -38 7 -272 7 -520 l0 -453 94 0 95 0 3 338 c5 391 8 413 88
493 57 57 110 73 220 67 l80 -5 0 78 c0 43 -4 80 -8 83 -17 10 -130 14 -172 6z"/>
<path d="M8225 1498 c-280 -53 -450 -371 -373 -698 43 -181 174 -321 343 -365
179 -46 363 9 445 134 l30 44 0 -86 0 -87 95 0 95 0 0 520 0 520 -95 0 -95 0
0 -74 0 -74 -57 57 c-106 105 -229 139 -388 109z m272 -174 c123 -59 195 -220
178 -404 -21 -237 -145 -362 -346 -348 -168 12 -272 120 -300 312 -28 190 43
376 166 436 90 44 214 45 302 4z"/>
<path d="M13713 1495 c-192 -42 -341 -204 -378 -410 -18 -100 -18 -150 0 -249
19 -109 65 -198 139 -271 111 -109 235 -150 426 -142 84 3 133 10 182 27 80
27 172 80 176 102 2 8 -8 41 -22 72 l-25 56 -73 -40 c-217 -117 -459 -82 -563
81 -28 43 -55 130 -55 176 l0 33 384 0 384 0 7 29 c9 40 -12 188 -35 257 -78
225 -292 334 -547 279z m211 -146 c55 -15 110 -54 139 -98 27 -41 57 -129 57
-168 l0 -23 -293 0 c-162 0 -296 3 -300 6 -10 10 24 107 54 156 70 110 214
163 343 127z"/>
<path d="M15325 1498 c-280 -53 -450 -371 -373 -698 43 -181 174 -321 343
-365 179 -46 363 9 445 134 l30 44 0 -86 0 -87 95 0 95 0 0 520 0 520 -95 0
-95 0 0 -74 0 -74 -57 57 c-106 105 -229 139 -388 109z m272 -174 c123 -59
195 -220 178 -404 -21 -237 -145 -362 -346 -348 -168 12 -272 120 -300 312
-28 190 43 376 166 436 90 44 214 45 302 4z"/>
<path d="M4980 1148 c0 -183 5 -361 10 -396 25 -150 90 -246 202 -298 58 -27
72 -29 183 -29 101 0 127 3 166 21 53 25 124 85 151 129 l18 30 0 -45 c0 -25
3 -62 6 -82 l7 -38 95 0 95 0 -7 37 c-3 21 -6 255 -6 521 l0 482 -95 0 -95 0
0 -338 c0 -397 -3 -416 -78 -491 -105 -105 -306 -110 -396 -11 -62 69 -66 101
-66 492 l0 348 -95 0 -95 0 0 -332z"/>
<path d="M16700 1148 c0 -183 5 -361 10 -396 25 -150 90 -246 202 -298 58 -27
72 -29 183 -29 101 0 127 3 166 21 53 25 124 85 151 129 l18 30 0 -45 c0 -25
3 -62 6 -82 l7 -38 95 0 95 0 -7 37 c-3 21 -6 255 -6 521 l0 482 -95 0 -95 0
0 -338 c0 -397 -3 -416 -78 -491 -105 -105 -306 -110 -396 -11 -62 69 -66 101
-66 492 l0 348 -95 0 -95 0 0 -332z"/>
<path d="M19507 1443 c9 -21 105 -253 214 -516 l198 -478 -15 -42 c-21 -59
-57 -117 -96 -154 -42 -40 -141 -100 -179 -108 -16 -4 -31 -10 -34 -15 -5 -7
62 -130 71 -130 2 0 33 11 69 25 117 44 221 131 289 244 27 45 476 1182 476
1206 0 3 -42 5 -93 5 l-92 0 -150 -410 c-82 -225 -152 -407 -155 -404 -3 3
-75 186 -161 407 l-157 402 -101 3 -100 3 16 -38z"/>
</g>
</svg>
